Coordinates
version=1
nRows=5
nColumns=63
inDegrees=yes

Units are S.I. units (second, meters, Newtons, ...)
If the header above contains a line with 'inDegrees', this indicates whether rotational values are in degrees (yes) or radians (no).

endheader
time	pelvis_tilt	pelvis_list	pelvis_rotation	pelvis_tx	pelvis_ty	pelvis_tz	hip_flexion_r	hip_adduction_r	hip_rotation_r	knee_angle_r	knee_angle_r_beta	ankle_angle_r	subtalar_angle_r	mtp_angle_r	hip_flexion_l	hip_adduction_l	hip_rotation_l	knee_angle_l	knee_angle_l_beta	ankle_angle_l	subtalar_angle_l	mtp_angle_l	L5_S1_Flex_Ext	L5_S1_Lat_Bending	L5_S1_axial_rotation	L4_L5_Flex_Ext	L4_L5_Lat_Bending	L4_L5_axial_rotation	L3_L4_Flex_Ext	L3_L4_Lat_Bending	L3_L4_axial_rotation	L2_L3_Flex_Ext	L2_L3_Lat_Bending	L2_L3_axial_rotation	L1_L2_Flex_Ext	L1_L2_Lat_Bending	L1_L2_axial_rotation	L1_T12_Flex_Ext	L1_T12_Lat_Bending	L1_T12_axial_rotation	Abs_r3	Abs_r2	Abs_r1	Abs_t1	Abs_t2	neck_flexion	neck_bending	neck_rotation	arm_flex_r	arm_add_r	arm_rot_r	elbow_flex_r	pro_sup_r	wrist_flex_r	wrist_dev_r	arm_flex_l	arm_add_l	arm_rot_l	elbow_flex_l	pro_sup_l	wrist_flex_l	wrist_dev_l
      1.66666667	      1.25843742	     -2.66768284	     90.45319145	      0.23118099	      0.97875732	      0.46453369	      9.36323480	      1.17971919	     -5.38274806	     12.73429025	      0.22225529	     31.77395003	      0.03607681	      0.00000000	      3.79505838	     -1.92997774	     -4.13420918	      1.46644307	      0.02559426	     27.63780273	      4.24647000	      0.00000000	     -0.00711827	     -0.01370800	     -0.13686799	     -0.01321934	     -0.01823164	     -0.14542224	     -0.01169461	     -0.03332963	     -0.14542224	     -0.00813547	     -0.03332963	     -0.11975949	     -0.00661003	     -0.02795335	     -0.11120524	     -0.00406738	     -0.02123369	     -0.10265099	     -0.05084509	     -0.15506764	     -0.76121871	      0.00000000	      0.00000000	     22.73409327	      2.48170715	     13.79628398	      4.28015765	    -12.38163089	     33.56838028	     55.32785366	     83.77012795	    -16.65016285	     -0.35900059	      5.41743645	     -9.53980464	     24.26179571	     44.95940092	     87.59961914	    -26.39680736	      1.47195463
      1.68333333	      1.20414772	     -2.65248176	     90.67101412	      0.23077602	      0.97857524	      0.46463318	      9.23398784	      1.03572509	     -5.82909527	     12.70452632	      0.22173581	     31.76380817	      0.25225304	      0.00000000	      3.81491423	     -1.85404923	     -4.45183245	      1.49020011	      0.02600890	     27.57422995	      4.96309990	      0.00000000	     -0.01032737	     -0.00796388	     -0.17173383	     -0.01917895	     -0.01059196	     -0.18246720	     -0.01696683	     -0.01936339	     -0.18246720	     -0.01180315	     -0.01936339	     -0.15026710	     -0.00958999	     -0.01623995	     -0.13953374	     -0.00590106	     -0.01233606	     -0.12880038	     -0.07376735	     -0.09008904	     -0.95513206	      0.00000000	      0.00000000	     22.27892549	      2.51518288	     13.71342692	      4.24003384	    -12.03891833	     33.05394184	     54.85500070	     82.18381899	    -16.12299515	     -0.57112993	      5.46779346	     -9.70203710	     24.54671195	     44.99787951	     87.43801742	    -26.02081746	      1.52103898
      1.70000000	      1.28102272	     -2.69626813	     90.65319868	      0.23049552	      0.97837107	      0.46452916	      9.20911298	      1.07155077	     -5.96492974	     12.72789038	      0.22214359	     31.62309197	      0.18225111	      0.00000000	      3.83837227	     -1.91930224	     -4.38974477	      1.46777644	      0.02561753	     27.44143287	      4.85391352	      0.00000000	     -0.00234799	      0.01559691	     -0.17755945	     -0.00436044	      0.02074388	     -0.18865692	     -0.00385750	      0.03792232	     -0.18865692	     -0.00268351	      0.03792232	     -0.15536452	     -0.00218034	      0.03180521	     -0.14426705	     -0.00134164	      0.02415961	     -0.13316959	     -0.01677142	      0.17643531	     -0.98753239	      0.00000000	      0.00000000	     21.86161317	      2.68959497	     13.61133505	      4.29957056	    -11.71074608	     32.67934295	     53.92436880	     82.17460551	    -16.05985565	     -0.55963148	      5.41264377	     -9.75407851	     24.85609241	     45.22619529	     87.48909576	    -25.99592845	      1.55667668
      1.71666667	      1.13553481	     -2.65618002	     91.18708602	      0.22961732	      0.97835886	      0.46412738	      8.95507093	      0.79944359	     -6.59471147	     12.54835667	      0.21901014	     31.58226493	      0.26683522	      0.00000000	      3.78434593	     -1.69504238	     -3.38492470	      1.38720017	      0.02421121	     27.08179377	      4.13514422	      0.00000000	      0.00120608	      0.00475440	     -0.24271665	      0.00223982	      0.00632335	     -0.25788644	      0.00198147	      0.01155984	     -0.25788644	      0.00137843	      0.01155984	     -0.21237707	      0.00111997	      0.00969517	     -0.19720728	      0.00068916	      0.00736456	     -0.18203749	      0.00861493	      0.05378270	     -1.34991718	      0.00000000	      0.00000000	     21.34754000	      3.42116409	     12.93173921	      4.07668239	    -10.88593974	     31.08251088	     52.08128041	     82.47747168	    -14.08085921	     -2.13606625	      5.66140978	    -10.25878196	     26.41386464	     45.68768002	     87.16367418	    -25.71434108	      2.03642890
      1.73333333	      1.15786774	     -2.56584493	     91.41638972	      0.22871983	      0.97849612	      0.46334209	      8.67263592	      0.69624950	     -7.23223054	     12.43842588	      0.21709149	     31.33885615	      0.91343388	      0.00000000	      3.59295575	     -1.65345794	     -2.61111010	      1.25300538	      0.02186907	     26.92455461	      3.44058754	      0.00000000	      0.00127151	      0.01973982	     -0.28229902	      0.00236133	      0.02625396	     -0.29994270	      0.00208897	      0.04799540	     -0.29994270	      0.00145321	      0.04799540	     -0.24701164	      0.00118073	      0.04025344	     -0.22936795	      0.00072654	      0.03057698	     -0.21172426	      0.00908229	      0.22330079	     -1.57006244	      0.00000000	      0.00000000	     21.34630733	      3.56340310	     12.03018675	      4.09897587	    -10.32395901	     30.24136052	     50.30733534	     82.75561376	    -12.89063814	     -2.52629104	      5.56883336	    -10.35796536	     27.06696002	     46.20221846	     86.80091913	    -24.98968073	      2.25408807
